<svg width="81" height="72" viewBox="0 0 81 72" fill="none" xmlns="http://www.w3.org/2000/svg">
<path d="M41.8198 69.7143L48.1437 58.8163H27.1319L13.9534 36L27.1319 13.1837H48.1437L41.8198 2.2857L40.4733 0H24.2351C21.3383 0 18.6048 1.55102 17.1768 4.08163L1.1016 31.9183C-0.367199 34.4489 -0.367199 37.551 1.1016 40.0816L17.1768 67.9184C18.6456 70.449 21.3383 72 24.2351 72H40.4733L41.8198 69.7143Z" fill="none" stroke="#F4F4F4"/>
<path d="M56.385 72H45.7363L66.6667 36L45.7363 0H56.385C59.3226 0 62.0153 1.55102 63.4433 4.08163L79.5185 31.9183C80.2529 33.1836 80.6202 34.5714 80.6202 36C80.6202 37.4285 80.2529 38.8163 79.5185 40.0816L63.4433 67.9184C62.0153 70.449 59.3226 72 56.385 72Z" fill="none" stroke="#F4F4F4" stroke-width="2"/>
</svg>
